<svg xmlns="http://www.w3.org/2000/svg" width="256" height="256" fill="none" viewBox="0 0 256 256">
<!-- SVG created with Arrow, by QuiverAI (https://quiver.ai) -->
  <path d="m174.8 74.09c10.31 25.18 9.15 52.19-5.47 73.97-9.56 14.35-21.19 22.95-35.1 27.37-10.43 3.45-19.12 4.46-26.07 9.56l19.25-41.28 10.38 22.82c5.02-2.25 10.15-5.75 12.42-8.61l-22.47-50.18-52.44 106.1c-14.87-13.99-21.57-31.33-17.29-66.88l0.57 0.15c0.55 16.76 4.35 31.05 16.17 44l32.3-63.36c6.59-13.33 0.43-25.93 5.04-43.98 2.61-8.77 5.94-15.68 11.32-23.13-2 14.78 2.39 27.17 12.64 44.47 8.16 12.64 14.96 25.81 20.45 42.91 11.55-10.94 13.87-36.81 4.79-57.96-13.2-22.52-25.35-39.22-16.28-83.03-24.02 17.83-47.9 44.81-51.03 80.71-1.35 12-0.15 17.65-4.15 24.9-2.9 4.8-8.49 6.13-12.72 2.95-6.97-5.7-5.48-16.7-4.7-28.33-19.67 25.84-32.2 48.88-32.78 78.9-0.78 33.96 21.4 67.34 63.3 82.87-8.5-6.88-10.84-18.29-9.6-26.69 2.34-13.9 12.43-20.75 28.78-26.07 9.13-3.03 17.77-5.25 25.34-9.76 19.84-10.61 37.9-32.4 45.15-58.4 10.48 23.71 9.43 48.3-3.12 73.93l0.25-49.07-11.15 18.25-0.59 43.93c0 3.14-1.72 4.31-4.85 6.6-0.48-12.97-4.44-24.53-10.21-36.82-4.59 3.91-6.63 4.99-12.79 7.78 9.79 20.48 16.04 41.13 2.16 57.01 36.53-14.98 61.51-46.52 62.53-82.68 1.1-29.88-15.03-60.9-40.03-92.92z" fill="url(#paint0_linear_234_107)"/>
  <defs>
    <linearGradient id="paint0_linear_234_107" x1="54.9" x2="184.7" y1="216.5" y2="52.74" gradientUnits="userSpaceOnUse">
      <stop stop-color="#D22A36" offset="0"/>
      <stop stop-color="#E1472A" offset=".49"/>
      <stop stop-color="#E9881A" offset="1"/>
    </linearGradient>
  </defs>
</svg>